<svg width="780" height="180" viewBox="0 0 780 180" fill="none" xmlns="http://www.w3.org/2000/svg">
  <path d="M10 22C10 15.3726 15.3726 10 22 10H52V43.5C52 52 56.4 59.9 63.6 64.4L72.8 70.2C81.8 75.9 87.2 85.8 87.2 96.4V170H40C33.3726 170 28 164.627 28 158V94.2C28 84.8 23.2 76.1 15.3 71.1L10 67.8V22Z" fill="#000000"/>
  <path d="M93 22C93 15.3726 98.3726 10 105 10H135V43.5C135 52 139.4 59.9 146.6 64.4L155.8 70.2C164.8 75.9 170.2 85.8 170.2 96.4V170H123C116.373 170 111 164.627 111 158V94.2C111 84.8 106.2 76.1 98.3 71.1L93 67.8V22Z" fill="#000000"/>
  <text x="190" y="124" fill="#000000" font-family="Inter, Arial, sans-serif" font-size="112" font-weight="500">HappyRobot</text>
</svg>
